<svg data-v-0dd9719b="" version="1.0" xmlns="http://www.w3.org/2000/svg" xmlns:xlink="http://www.w3.org/1999/xlink" width="100%" height="100%" viewBox="0 0 340.000000 250.000000" preserveAspectRatio="xMidYMid meet" color-interpolation-filters="sRGB" style="margin: auto;"> <rect data-v-0dd9719b="" x="0" y="0" width="100%" height="100%" fill="#fff" fill-opacity="1" class="background"></rect> <rect data-v-0dd9719b="" x="0" y="0" width="100%" height="100%" fill="url(#watermark)" fill-opacity="1" class="watermarklayer"></rect> <g data-v-0dd9719b="" fill="#3299bb" class="icon-text-wrapper icon-svg-group iconsvg" transform="translate(49.334999084472656,94.75562477111816)"><g class="iconsvg-imagesvg" transform="translate(0,0)"><g><rect fill="#3299bb" fill-opacity="0" stroke-width="2" x="0" y="0" width="60" height="60.48874909266876" class="image-rect"></rect> <svg x="0" y="0" width="60" height="60.48874909266876" filtersec="colorsb2268788960" class="image-svg-svg primary" style="overflow: visible;"><svg version="1.1" id="图层_1" xmlns="http://www.w3.org/2000/svg" xmlns:xlink="http://www.w3.org/1999/xlink" x="0px" y="0px" viewBox="3.8969192504882812 7 984.978271484375 993.0033569335938" enable-background="new 0 0 1000 1000" xml:space="preserve">
<path fill="#3299BB" d="M508.99,7c42.77,0,77.45,100.99,77.45,225.51c0,64.92-9.43,123.45-24.51,164.59
	c5.23-31.95,8.19-25.78,8.19-107.52c0-81.74-30.4-187.5-67.94-187.5c-37.51,0-67.92,124.85-67.92,187.5c0,62.67,0,1.59,0,2.36
	c-1.78-18.92-2.72-38.83-2.72-59.44C431.55,107.99,466.2,7,508.99,7L508.99,7z M117.17,188.45c27.49-32.77,127.15,5.57,222.56,85.66
	c49.72,41.7,88.49,86.53,110.32,124.54c-21.11-24.55-14.49-22.87-77.11-75.38c-62.6-52.54-163.16-97.22-187.27-68.49
	c-24.12,28.75,51.95,132.26,99.97,172.55c48,40.29,1.2,1.01,1.82,1.51c-15.65-10.82-31.52-22.89-47.3-36.12
	C144.76,312.68,89.67,221.2,117.17,188.45L117.17,188.45z M4.31,605.2c-7.42-42.1,86.01-93.79,208.66-115.44
	c63.94-11.25,123.18-12.13,166.34-4.41c-32.39,0.4-26.83-3.62-107.33,10.55c-80.47,14.22-179.36,62.54-172.84,99.48
	c6.52,36.94,134.72,45.21,196.45,34.33c61.73-10.87,1.55-0.26,2.35-0.43c-18.35,5.03-37.82,9.44-58.08,13
	C117.22,663.92,11.74,647.33,4.31,605.2L4.31,605.2z M251.01,959.57c-37.02-21.37-16.56-126.18,45.71-234.04
	c32.48-56.23,69.92-102.21,103.54-130.28c-20.52,25.07-20.01,18.22-60.88,89.03c-40.87,70.78-67.41,177.57-34.9,196.3
	c32.45,18.78,121.22-74.11,152.54-128.38c31.34-54.27,0.8-1.35,1.2-2.07c-7.95,17.28-17.07,35.02-27.35,52.84
	C368.6,910.83,288.06,980.96,251.01,959.57L251.01,959.57z M681.08,998.33c-40.19,14.64-107.32-68.41-149.91-185.44
	c-22.2-61-33.37-119.21-33.26-163.03c6.03,31.8,1.13,27.04,29.07,103.84c27.94,76.81,92.72,165.8,127.99,152.97
	c35.22-12.83,21.1-140.54-0.3-199.45c-21.47-58.88-0.57-1.46-0.83-2.2c8.12,17.16,15.84,35.61,22.9,54.91
	C719.3,876.95,721.25,983.71,681.08,998.33L681.08,998.33z M987.21,693.83c-14.64,40.19-121.41,38.23-238.44-4.38
	c-61-22.2-112.78-51.05-146.28-79.32c28.24,15.85,21.43,16.53,98.27,44.49c76.76,27.97,186.57,35.55,199.38,0.29
	c12.83-35.24-94.05-106.52-152.94-127.94c-58.86-21.46-1.51-0.55-2.26-0.81c18.44,4.82,37.49,10.72,56.84,17.76
	C918.78,586.52,1001.81,653.67,987.21,693.83L987.21,693.83z M950.72,263.61c21.35,37.02-48.77,117.58-156.63,179.82
	c-56.19,32.47-111.58,53.56-154.78,61.07c30.3-11.45,26.47-5.76,97.23-46.64c70.8-40.87,147.16-120.11,128.38-152.57
	c-18.72-32.5-142.02,3.56-196.31,34.88c-54.27,31.35-1.38,0.81-2.06,1.22c15.52-11.02,32.28-21.8,50.12-32.08
	C824.55,247.03,929.34,226.55,950.72,263.61L950.72,263.61z"></path>
</svg></svg> <!----></g></g> <g transform="translate(67,1.5731258392333984)"><g data-gra="path-name" fill-rule="" class="tp-name iconsvg-namesvg" transform="translate(0,0)"><g transform="scale(1)"><g><path d="M43.47-19.66L43.47-18.36 22.59-18.36Q27.36-6.75 43.78-2.11L43.78-2.11 43.7-1.57Q40.23-1.08 38.97 2.88L38.97 2.88Q32.31-0.36 28.04-5.4 23.76-10.44 21.73-18.36L21.73-18.36 15.88-18.36 15.88-3.24Q22.32-5 25.88-5.98L25.88-5.98 26.01-5.54Q20.93-1.48 13.54 2.97L13.54 2.97Q13.09 3.78 12.46 4.23L12.46 4.23 7.96-1.84Q9.45-2.79 9.86-3.33L9.86-3.33Q10.3-3.87 10.3-4.77L10.3-4.77 10.3-18.36 2.29-18.36 1.89-19.66 10.3-19.66 10.3-38.16 15.88-37.35 15.88-23.49Q20.52-26.46 24.97-30.2 29.43-33.93 31.99-36.99L31.99-36.99 36.13-32.4Q32.35-29.38 26.91-26.64L26.91-26.64Q21.51-23.94 15.88-22.05L15.88-22.05 15.88-19.66 43.47-19.66ZM71.78-10.89L71.78-38.12 76.91-37.48Q76.91-37.48 76.91-12.96L76.91-12.96Q76.91-12.42 75.42-11.65 73.94-10.89 72.54-10.89L72.54-10.89 71.78-10.89ZM64.48-30.11L64.48-30.11 69.66-28.08Q65.92-18.09 59.8-13.32L59.8-13.32 59.27-13.72Q62.95-20.61 64.48-30.11ZM81.63-17.86L81.63-17.86 86.09-14.17Q77.58 1.67 57.42 3.92L57.42 3.92 57.24 3.33Q65.56 0.81 71.91-4.41L71.91-4.41Q78.25-9.67 81.63-17.86ZM47.3-8.69L47.3-9.54 49.41-9.54Q49.81-9.54 49.99-9.58 50.17-9.63 50.35-9.81L50.35-9.81Q50.58-9.99 50.85-10.44L50.85-10.44Q51.98-12.2 61.56-30.69L61.56-30.69 62.28-30.46Q56.16-14.31 55.53-12.06L55.53-12.06Q54.67-9.49 54.67-7.83L54.67-7.83Q54.72-6.97 55.62-4.72L55.62-4.72Q56.52-2.52 56.43-0.45L56.43-0.45Q56.34 1.17 55.3 2.16L55.3 2.16Q54.31 3.15 52.65 3.15L52.65 3.15Q50.63 3.15 50.13 0.9L50.13 0.9Q50.72-2.43 50.58-4.95 50.45-7.47 49.63-7.96L49.63-7.96Q48.73-8.55 47.3-8.69L47.3-8.69ZM46.17-26.28L46.17-26.28 46.53-26.59Q52.7-26.32 54.41-23.4L54.41-23.4Q55.44-21.64 54.31-20.2L54.31-20.2Q53.23-18.77 51.3-19.44L51.3-19.44Q50.94-19.57 50.53-19.8L50.53-19.8Q50.09-21.46 48.83-23.22L48.83-23.22Q47.61-24.97 46.17-26.28ZM50.17-36.63L50.17-36.63 50.53-36.95Q57.02-36.63 58.91-33.62L58.91-33.62Q60.03-31.77 58.91-30.24L58.91-30.24Q57.78-28.75 55.75-29.43L55.75-29.43Q55.39-29.52 55.03-29.74L55.03-29.74Q54.45-31.5 53.05-33.39L53.05-33.39Q51.7-35.28 50.17-36.63ZM78.03-29.92L78.03-29.92 78.44-30.24Q85.91-28.17 88.11-23.8L88.11-23.8Q89.5-21.11 88.29-19.13L88.29-19.13Q87.25-17.41 85.32-17.95L85.32-17.95Q84.6-18.18 83.88-18.72L83.88-18.72Q83.47-21.51 81.81-24.57L81.81-24.57Q80.19-27.63 78.03-29.92ZM111.78-33.16L111.78-33.16 112.14-33.48Q118.44-32.53 120.11-29.34L120.11-29.34Q121.14-27.4 119.92-25.96L119.92-25.96Q118.75-24.52 116.86-25.29L116.86-25.29Q116.41-25.47 116.01-25.79L116.01-25.79Q115.74-27.63 114.48-29.65L114.48-29.65Q113.27-31.72 111.78-33.16ZM110.92-22.05L110.92-22.05 111.24-22.36Q117.63-21.69 119.34-18.59L119.34-18.59Q120.38-16.7 119.25-15.21L119.25-15.21Q118.17-13.72 116.28-14.4L116.28-14.4Q115.78-14.58 115.29-14.89L115.29-14.89Q114.93-16.7 113.67-18.68L113.67-18.68Q112.41-20.7 110.92-22.05ZM111.51-22.86L104.04-22.86 104.04-20.34Q109.39-18.59 110.52-15.48L110.52-15.48Q111.19-13.5 109.89-12.38 108.59-11.25 106.92-12.42L106.92-12.42Q106.74-12.51 106.61-12.64L106.61-12.64Q106.2-15.39 104.04-18.99L104.04-18.99 104.04 2.56Q104.04 2.75 103.55 3.06L103.55 3.06Q103.05 3.42 102.02 3.73L102.02 3.73Q101.03 4.05 99.86 4.05L99.86 4.05 98.91 4.05 98.91-12.64Q95.76-8.1 91.35-4.72L91.35-4.72 90.81-5.22Q95.81-11.79 98.28-22.86L98.28-22.86 92.16-22.86 91.8-24.12 98.91-24.12 98.91-31.18Q94.86-30.64 91.67-30.46L91.67-30.46 91.48-31.05Q95.13-32.31 99.09-34.34L99.09-34.34Q103.05-36.41 105.3-38.16L105.3-38.16 108.09-33.07Q106.34-32.49 104.04-32.04L104.04-32.04 104.04-24.12 111.51-24.12 111.51-22.86ZM127.75-11.88L128.12-11.97 133.6-11.97 133.6-11.74 127.75-10.62 127.75 2.11Q127.75 2.56 126.36 3.19 124.97 3.82 123.62 3.82L123.62 3.82 122.63 3.82 122.63-9.63 108.27-6.88 107.64-8.1 122.63-10.93 122.63-37.13 127.75-36.45 127.75-11.88ZM167.49-35.91L167.49-35.91 172.8-33.03Q168.44-26.46 162.94-22.99L162.94-22.99 162.41-23.36Q165.19-28.13 167.49-35.91ZM141.48-35.14L141.48-35.14 141.93-35.41Q149.4-32.94 151.6-28.53L151.6-28.53Q152.95-25.74 151.69-23.85L151.69-23.85Q150.62-22.23 148.59-22.9L148.59-22.9Q147.96-23.13 147.33-23.63L147.33-23.63Q146.16-28.62 141.48-35.14ZM138.74 0.09L138.74 0.09 138.33-0.27Q141.34-3.42 143.91-8.32L143.91-8.32Q146.47-13.28 147.47-17.14L147.47-17.14 152.59-14.54Q150.48-9.67 146.79-5.94 143.1-2.21 138.74 0.09ZM161.78-15.79L161.78-15.79 162.27-16.06Q170.73-12.55 173.52-7.29L173.52-7.29Q175.23-4.05 174.1-1.8L174.1-1.8Q173.16 0 171.09-0.54L171.09-0.54Q170.32-0.77 169.51-1.35L169.51-1.35Q167.94-7.51 161.78-15.79ZM160.43-20.65L176.22-20.65 176.22-19.35 160.43-19.35 160.43 2.25Q160.43 2.7 158.9 3.33L158.9 3.33Q157.37 4 155.84 4L155.84 4 154.71 4 154.71-19.35 138.91-19.35 138.56-20.65 154.71-20.65 154.71-38.16 160.43-37.48 160.43-20.65Z" transform="translate(-1.8899999856948853, 38.15999984741211)"></path></g> <!----> <!----> <!----> <!----> <!----> <!----> <!----></g></g> <g data-gra="path-slogan" fill-rule="" class="tp-slogan iconsvg-slogansvg" fill="#3299bb" transform="translate(37.82999801635742,48.38999938964844)"><!----> <!----> <g transform="scale(1, 1)"><g transform="scale(1)"><path d="M8.06-6.05L8.06-6.05L6.94-6.05Q6.52-7.78 4.55-7.83L4.55-7.83Q1.83-7.69 1.73-4.36L1.73-4.36Q1.73-0.80 4.59-0.80L4.59-0.80Q6.56-0.84 7.03-3.19L7.03-3.19L8.16-3.19Q7.64 0.05 4.36 0.14L4.36 0.14Q0.61 0 0.52-4.31L0.52-4.31Q0.70-8.63 4.55-8.81L4.55-8.81Q7.59-8.72 8.06-6.05ZM10.69-5.06L15.19-5.06L15.19-8.58L16.36-8.58L16.36 0L15.19 0L15.19-3.98L10.69-3.98L10.69 0L9.52 0L9.52-8.58L10.69-8.58L10.69-5.06ZM23.81 0L22.97-2.48L19.50-2.48L18.61 0L17.44 0L20.67-8.58L21.98-8.58L25.08 0L23.81 0ZM21.23-7.31L19.88-3.52L22.55-3.52L21.28-7.31L21.23-7.31ZM27.52-8.58L31.83-1.64L31.83-8.58L32.95-8.58L32.95 0L31.64 0L27.28-6.94L27.23-6.94L27.23 0L26.11 0L26.11-8.58L27.52-8.58ZM41.16-3.61L38.53-3.61L38.53-4.59L42.28-4.59L42.28 0L41.53 0L41.25-1.08Q40.27 0.09 38.44 0.14L38.44 0.14Q36.70 0.14 35.77-0.75L35.77-0.75Q34.36-2.06 34.41-4.36L34.41-4.36Q34.73-8.63 38.48-8.81L38.48-8.81Q41.67-8.63 42.14-6L42.14-6L41.02-6Q40.55-7.78 38.44-7.83L38.44-7.83Q35.77-7.64 35.63-4.31L35.63-4.31Q35.63-0.75 38.48-0.75L38.48-0.75Q39.52-0.75 40.27-1.31L40.27-1.31Q41.20-2.06 41.16-3.61L41.16-3.61ZM50.34-6.09L50.34-6.09L49.27-6.09Q49.17-7.73 47.11-7.83L47.11-7.83Q45.19-7.78 45.19-6.33L45.19-6.33Q45.19-5.39 46.22-5.25L46.22-5.25L48.66-4.69Q50.58-4.22 50.58-2.34L50.58-2.34Q50.53 0.05 47.20 0.14L47.20 0.14Q45.38 0.14 44.63-0.61L44.63-0.61Q43.69-1.31 43.73-2.77L43.73-2.77L44.86-2.77Q44.91-0.80 47.20-0.75L47.20-0.75Q49.45-0.80 49.50-2.20L49.50-2.20Q49.69-3.38 47.63-3.75L47.63-3.75L45.84-4.13Q44.02-4.64 44.02-6.19L44.02-6.19Q44.16-8.72 47.02-8.81L47.02-8.81Q50.25-8.81 50.34-6.09ZM53.20-5.06L57.70-5.06L57.70-8.58L58.88-8.58L58.88 0L57.70 0L57.70-3.98L53.20-3.98L53.20 0L52.03 0L52.03-8.58L53.20-8.58L53.20-5.06ZM66.33 0L65.48-2.48L62.02-2.48L61.13 0L59.95 0L63.19-8.58L64.50-8.58L67.59 0L66.33 0ZM63.75-7.31L62.39-3.52L65.06-3.52L63.80-7.31L63.75-7.31ZM74.48-4.31L73.13-3.05L73.13 0L71.95 0L71.95-8.58L73.13-8.58L73.13-4.41L77.30-8.58L78.94-8.58L75.33-5.11L79.03 0L77.48 0L74.48-4.31ZM81.23-1.03L86.39-1.03L86.39 0L80.06 0L80.06-8.58L86.30-8.58L86.30-7.59L81.23-7.59L81.23-4.92L85.92-4.92L85.92-3.89L81.23-3.89L81.23-1.03ZM96.14-8.58L96.14 0L95.02 0L95.02-5.06Q95.02-5.77 95.02-7.22L95.02-7.22L92.58 0L91.41 0L89.02-7.22L88.97-7.22Q88.97-6.70 89.02-5.67L89.02-5.67Q89.02-5.16 89.02-5.06L89.02-5.06L89.02 0L87.84 0L87.84-8.58L89.53-8.58L92.02-1.31L94.45-8.58L96.14-8.58ZM98.02-8.58L99.19-8.58L99.19 0L98.02 0L98.02-8.58Z" transform="translate(-0.515625, 8.8125)"></path></g></g></g></g></g><defs v-gra="od"></defs></svg>